HIERARCHY
ROOT Hips
{
	OFFSET 0.00000 0.00000 0.00000
	CHANNELS 6 Xposition Yposition Zposition Yrotation Zrotation Xrotation 
	JOINT Lumbar
	{
		OFFSET 0 0 0
		CHANNELS 3 Zrotation Xrotation Yrotation
		JOINT Neck
		{
			OFFSET 0.00 0.2701 0.00
			CHANNELS 3 Zrotation Xrotation Yrotation
			End Site
			{
				OFFSET 0.00 0.1379 0.00
			}
		}
		JOINT RightShoulder
		{
			OFFSET 0.0119 0.2289 0.1181
			CHANNELS 3 Zrotation Xrotation Yrotation
			JOINT RightElbow
			{
				OFFSET 0.00 -0.1475 0.00
				CHANNELS 2 Zrotation Yrotation
				JOINT RightWrist
				{
					OFFSET 0.00 -0.1605 0.00
					CHANNELS 2 Zrotation Xrotation
					End Site
					{
						OFFSET 0.0040 -0.1068 0.0006
					}
				}
			}
		}
		JOINT LeftShoulder
		{
			OFFSET 0.0119 0.2289 -0.1181
			CHANNELS 3 Zrotation Xrotation Yrotation
			JOINT LeftElbow
			{
				OFFSET 0.00 -0.1475 0.00
				CHANNELS 2 Zrotation Yrotation
				JOINT LeftWrist
				{
					OFFSET 0.00 -0.1605 0.00
					CHANNELS 2 Zrotation Xrotation
					End Site
					{
						OFFSET 0.0040 -0.1068 -0.0006
					}
				}
			}
		}
	}
	JOINT RightHip
	{
		OFFSET 0.0316 -0.0424 0.0458
		CHANNELS 3 Zrotation Xrotation Yrotation
		JOINT RightKnee
		{
			OFFSET 0.00 -0.2438 0.00
			CHANNELS 1 Zrotation
			JOINT RightAnkle
			{
				OFFSET 0.00 -0.2449 0.00
				CHANNELS 3 Zrotation Xrotation Yrotation
				End Site
				{
					OFFSET 0.1237 -0.0542 0.0051
				}
			}
		}
	}
	JOINT LeftHip
	{
		OFFSET 0.0316 -0.0424 -0.0458
		CHANNELS 3 Zrotation Xrotation Yrotation
		JOINT LeftKnee
		{
			OFFSET 0.00 -0.2438 0.00
			CHANNELS 1 Zrotation
			JOINT LeftAnkle
			{
				OFFSET 0.00 -0.2449 0.00
				CHANNELS 3 Zrotation Xrotation Yrotation
				End Site
				{
					OFFSET 0.1237 -0.0542 -0.0051
				}
			}
		}
	}
}
MOTION
Frames: 33
Frame Time: 0.02
-0.48164 -0.05978 -0.95962 1272.39356 -42.06188 1.26713 44.80649 0.15919 5.52489 -13.15557 2.66986 -0.83079 -23.30951 -7.247 -2.47557 44.2016 75.13473 -7.63764 0.3293 -39.26557 -0.30555 28.24724 40.11866 -50.00178 -13.29566 -5.4388 -1.36276 6.76851 25.35392 -1.24739 -24.98966 -33.02723 -19.47887 32.68093 6.31152 -21.9744 4.2448 -14.76121 38.97218 20.79238
-0.4919 -0.06274 -0.95409 1272.37418 -40.99311 1.5458 44.22664 -0.10688 5.04675 -13.24486 2.67691 -0.83079 -24.1394 -7.54496 -2.71203 43.76084 74.83419 -7.66466 0.48256 -37.741 0.00293 28.57285 39.71986 -48.93952 -13.63721 -5.59365 0.83318 6.08716 22.34693 -8.30913 -24.03263 -29.7644 -17.59842 32.22995 5.54941 -18.75861 -0.2551 -13.53741 33.90271 18.17702
-0.50112 -0.06609 -0.94896 1272.49946 -39.6257 1.79337 43.24764 -0.36251 4.29638 -13.30464 2.69339 -0.83079 -24.76367 -7.82492 -3.14198 43.06609 74.57354 -7.67066 0.6066 -36.06677 0.58858 28.088 39.13068 -49.24011 -13.57636 -5.51491 3.95004 5.5688 14.7866 -17.30839 -21.5121 -21.69423 -13.11355 33.01781 4.67466 -13.54156 -7.75154 -11.64059 25.4234 13.80773
-0.5108 -0.06921 -0.94369 1272.57193 -38.4092 2.03612 42.46096 -0.60814 3.6388 -13.38633 2.69989 -0.83079 -25.47565 -8.10003 -3.51041 42.49628 74.30285 -7.6873 0.73946 -34.46781 1.0528 27.94455 38.64121 -49.04473 -13.65934 -5.52536 6.61458 4.98715 9.52425 -25.25769 -19.76835 -16.12568 -9.98568 33.13365 3.89791 -9.3706 -13.6148 -10.10961 18.77383 10.37933
-0.52055 -0.07255 -0.9382 1272.59072 -37.12251 2.36157 41.62892 -0.91628 3.11308 -13.43635 2.72935 -0.83079 -26.22405 -8.43529 -3.76693 41.88179 74.00117 -7.70023 0.88975 -32.82697 1.48881 27.94477 38.09875 -48.27403 -13.92308 -5.61888 9.42506 4.35012 3.40218 -33.95128 -17.7615 -9.34809 -6.19318 33.66629 2.92497 -4.64337 -20.56078 -8.33594 11.00444 6.37603
-0.5299 -0.07551 -0.93329 1272.75755 -35.91628 2.50663 40.79733 -1.09186 2.24845 -13.54261 2.71451 -0.83079 -26.84343 -8.63805 -4.3018 41.30171 73.76676 -7.71506 1.00019 -31.24168 2.05159 27.44645 37.62279 -49.02731 -13.71311 -5.48305 12.15339 3.87197 -2.05408 -41.53333 -15.92406 -3.88999 -3.1364 33.64883 2.33284 -0.59472 -25.99276 -6.90291 4.72789 3.13839
-0.53841 -0.07734 -0.92984 1273.27006 -34.97057 2.15835 40.05187 -0.90163 0.50458 -13.82465 2.56425 -0.83079 -27.15267 -8.49162 -5.567 40.8791 73.78348 -7.74525 0.97003 -29.85243 2.9125 25.71085 37.34662 -53.89123 -12.23816 -4.72661 14.37476 3.77972 -4.52135 -45.69477 -14.94823 -3.34474 -2.79987 31.72103 2.82622 1.12851 -26.44403 -6.58717 3.47882 2.48003
-0.54654 -0.07877 -0.92699 1273.93095 -34.1233 1.63022 39.32289 -0.57901 -1.56837 -14.16127 2.37103 -0.83079 -27.33839 -8.20995 -7.10292 40.50012 73.85763 -7.77634 0.90579 -28.52509 3.88976 23.50755 37.1481 -60.20894 -10.30803 -3.75322 16.48995 3.84508 -6.18171 -48.64299 -14.1926 -4.25858 -3.27499 29.21831 3.70501 2.09625 -25.28842 -6.6339 3.82884 2.64207
-0.55483 -0.08036 -0.9239 1274.54199 -33.25381 1.18518 38.59428 -0.31805 -3.48581 -14.46392 2.20464 -0.83079 -27.58128 -7.98117 -8.51077 40.10211 73.85067 -7.80467 0.88384 -27.16681 4.80506 21.55178 36.93413 -65.71693 -8.6192 -2.90642 18.68949 3.84841 -8.25138 -52.06664 -13.32649 -4.42649 -3.33595 27.04178 4.40353 3.38811 -24.92096 -6.50549 3.39179 2.40062
-0.56317 -0.08202 -0.92069 1275.08514 -32.27773 0.73122 37.81799 -0.04917 -5.44229 -14.8048 2.00799 -0.83079 -27.81187 -7.78666 -9.95176 39.69331 74.05798 -7.84535 0.75497 -25.81381 5.76894 19.42021 36.63292 -71.8991 -6.77002 -1.93467 20.77211 3.81802 -10.30268 -55.88835 -12.44985 -4.77954 -3.49889 24.63399 5.12136 4.82972 -24.4142 -6.39773 3.09029 2.22728
-0.57131 -0.08346 -0.91785 1275.8015 -31.55228 0.25623 37.15089 0.23291 -7.3865 -15.07874 1.86371 -0.83079 -28.04261 -7.49057 -11.37905 39.31877 73.85634 -7.85687 0.83203 -24.46791 6.65478 17.55479 36.53049 -77.00633 -5.15353 -1.17324 23.05702 3.89162 -12.13602 -58.55554 -11.66802 -5.15446 -3.67528 22.55506 5.88991 5.75501 -23.77516 -6.34177 2.93204 2.13049
-0.57902 -0.08433 -0.91588 1276.97262 -31.48476 -0.25584 36.77672 0.5328 -9.26239 -15.16028 1.87734 -0.83079 -28.29425 -6.93186 -12.75858 39.04571 72.29546 -7.82332 1.56706 -23.11659 7.30295 16.53633 36.9912 -78.77278 -4.27756 -1.05823 25.95447 4.22726 -13.59545 -58.42422 -11.09881 -5.26181 -3.70545 21.52177 6.72266 5.42093 -23.16686 -6.34324 2.77973 2.04521
-0.58654 -0.085 -0.91424 1278.31001 -31.66928 -0.77825 36.51488 0.83879 -11.10417 -15.17171 1.94454 -0.83079 -28.55329 -6.27828 -14.10485 38.80365 70.35534 -7.75525 2.49777 -21.77354 7.86565 15.8065 37.64378 -79.40393 -3.65561 -1.1612 29.04808 4.65896 -14.83504 -57.14699 -10.62451 -5.35948 -3.73133 20.83291 7.59036 4.58624 -22.46447 -6.38725 2.7337 2.01756
-0.59414 -0.0858 -0.91245 1279.56191 -31.7467 -1.28091 36.20641 1.13291 -12.93055 -15.2115 1.98536 -0.83079 -28.81615 -5.67847 -15.42671 38.5372 68.73771 -7.67787 3.28309 -20.43324 8.4625 14.94987 38.18799 -80.55901 -2.92846 -1.15716 32.03035 5.03686 -16.13266 -56.32225 -10.11131 -5.46611 -3.76194 19.98326 8.43037 3.98347 -21.78956 -6.41296 2.6542 1.97135
-0.60174 -0.08643 -0.91069 1280.86017 -31.79658 -1.8541 35.87898 1.47 -14.90086 -15.2677 2.0334 -0.83079 -29.04361 -5.02984 -16.9194 38.31556 66.51223 -7.70021 4.29638 -19.06507 9.08503 14.05715 38.82516 -81.73127 -2.14319 -1.17872 35.10809 5.46256 -17.58202 -55.73972 -9.58628 -5.60029 -3.80692 19.13562 9.33318 3.33905 -21.12897 -6.44597 2.56318 1.91916
-0.60932 -0.08737 -0.90892 1282.10045 -31.96162 -2.27963 35.61835 1.71739 -16.55672 -15.27272 2.07952 -0.83079 -29.34901 -4.46099 -18.05186 38.00747 65.43188 -7.51395 4.8933 -17.75922 9.63019 13.31538 39.31204 -82.57988 -1.54373 -1.20187 38.02871 5.81023 -18.6728 -54.40237 -9.10656 -5.65769 -3.81142 18.36881 10.10903 2.6695 -20.4318 -6.46994 2.50415 1.88426
-0.61681 -0.08915 -0.90708 1283.13032 -32.39027 -2.30147 35.50893 1.7142 -17.36945 -15.15 2.10917 -0.83079 -29.86103 -4.14697 -18.13455 37.45234 67.87809 -6.69417 4.19131 -16.59837 9.99872 12.91457 39.34829 -82.79588 -1.41155 -1.17524 40.5153 5.91178 -18.82621 -51.20987 -8.72364 -5.4945 -3.69895 17.77715 10.5199 2.06761 -19.70215 -6.45233 2.48617 1.87261
-0.6243 -0.09124 -0.9052 1284.09724 -32.9243 -2.17231 35.4642 1.62017 -17.86213 -14.97853 2.13508 -0.83079 -30.45252 -3.91568 -17.86551 36.80886 71.44798 -5.67569 3.08106 -15.50543 10.28857 12.65925 39.22472 -82.72116 -1.4569 -1.14407 42.82615 5.93245 -18.63019 -47.31327 -8.38336 -5.24972 -3.54335 17.25095 10.80138 1.45312 -18.93807 -6.424 2.49876 1.87752
-0.63185 -0.09321 -0.9033 1285.09842 -33.40483 -2.10692 35.39326 1.56784 -18.48854 -14.83149 2.16143 -0.83079 -31.01349 -3.63901 -17.79853 36.2064 74.31332 -4.79437 2.22631 -14.39618 10.60346 12.34304 39.16584 -82.78274 -1.41259 -1.11649 45.18954 5.99343 -18.59825 -43.77783 -8.02555 -5.04245 -3.40767 16.67376 11.14348 0.84531 -18.1679 -6.40229 2.49632 1.87377
-0.63913 -0.09511 -0.90156 1286.08125 -33.91786 -2.06209 35.31162 1.51374 -19.16322 -14.67263 2.19422 -0.83079 -31.55354 -3.38936 -17.55547 35.60232 77.94634 -3.72344 1.0894 -13.22137 10.96131 12.01399 39.14503 -82.78726 -1.41472 -1.08946 47.68476 6.04098 -18.53548 -40.02558 -7.66208 -4.83339 -3.27061 16.19788 11.47766 0.23785 -17.48581 -6.37305 2.47977 1.86452
-0.64698 -0.09723 -0.89947 1287.08568 -34.38496 -1.93895 35.26763 1.44204 -19.66205 -14.52747 2.21289 -0.83079 -32.1528 -3.1074 -17.59208 34.97907 80.29943 -2.98887 0.43263 -12.20468 11.21134 11.74317 39.00721 -82.85712 -1.35908 -1.05796 49.84896 6.09837 -18.45741 -36.57559 -7.32088 -4.60925 -3.1266 15.52217 11.79926 -0.39467 -16.61278 -6.35868 2.5279 1.88586
-0.6563 -0.09989 -0.89642 1288.15934 -34.69782 -1.63179 35.29926 1.34033 -19.75045 -14.43481 2.18581 -0.83079 -32.9232 -2.69044 -18.51881 34.33534 78.42466 -3.33719 1.26929 -11.56233 11.1885 11.59379 38.56198 -83.18092 -1.09752 -1.01102 51.24386 6.18217 -18.42418 -34.11431 -7.01312 -4.35401 -2.96761 14.27874 12.09907 -0.82626 -15.2326 -6.37015 2.46067 1.83309
-0.66621 -0.10277 -0.89303 1289.25687 -34.95981 -1.25206 35.36877 1.22462 -19.67359 -14.35771 2.14579 -0.83079 -33.74529 -2.24346 -19.73202 33.6741 75.29266 -4.01402 2.58901 -11.08651 11.05872 11.49874 38.00873 -83.59053 -0.76963 -0.96027 52.29109 6.28211 -18.39127 -31.98985 -6.72691 -4.08656 -2.80342 12.83145 12.39428 -1.31279 -13.66203 -6.40197 2.48926 1.82803
-0.67591 -0.10557 -0.8898 1290.34679 -35.24491 -0.90831 35.42794 1.11772 -19.6747 -14.27167 2.11652 -0.83079 -34.52603 -1.82733 -20.79502 33.01245 73.02588 -4.46808 3.64302 -10.56271 10.97528 11.37802 37.51826 -83.95862 -0.47455 -0.91192 53.43053 6.38751 -18.35481 -29.73029 -6.44464 -3.83269 -2.64671 11.47423 12.70327 -1.96838 -12.16887 -6.43346 2.68779 1.91605
-0.68534 -0.10834 -0.88654 1291.42209 -35.53403 -0.54575 35.45846 0.99753 -19.65277 -14.19068 2.06674 -0.83079 -35.38523 -1.34096 -21.93564 32.3793 69.60015 -5.21443 4.88045 -9.91906 10.90065 11.26068 36.96116 -84.30633 -0.18024 -0.85735 54.84424 6.43569 -18.30894 -27.37355 -6.1149 -3.54826 -2.47019 10.12544 12.95714 -1.8758 -10.70412 -6.419 2.07238 1.56527
-0.69549 -0.11119 -0.88325 1292.53291 -35.80112 -0.20821 35.55924 0.90263 -19.64345 -14.10491 2.05648 -0.83079 -36.0919 -0.99324 -22.98044 31.68849 68.22161 -5.44637 5.85261 -9.57031 10.7807 11.15482 36.52347 -84.74612 0.1409 -0.81909 55.60322 6.60848 -18.30167 -25.30351 -5.87737 -3.31789 -2.33013 8.71597 13.32801 -3.26631 -9.14645 -6.51519 3.06648 2.08301
-0.70732 -0.11429 -0.88002 1293.74669 -36.0196 0.05131 35.8226 0.88379 -19.71244 -13.99011 2.16002 -0.83079 -36.36528 -1.03026 -23.7521 30.80326 73.26368 -4.05957 6.00628 -9.93866 10.58744 10.9951 36.40591 -85.18871 0.45516 -0.78786 54.6678 7.11591 -18.27743 -23.99776 -5.98548 -3.30353 -2.32613 7.13748 14.00878 -9.52062 -7.28936 -6.8213 9.4431 5.48988
-0.71987 -0.11745 -0.87677 1294.99287 -36.21667 0.28062 36.15844 0.89104 -19.80009 -13.87232 2.30353 -0.83079 -36.48163 -1.20808 -24.40919 29.86869 80.32121 -2.16631 5.87432 -10.60819 10.34984 10.85316 36.41942 -85.75392 0.80375 -0.77863 53.08227 7.7489 -18.31486 -22.9669 -6.16801 -3.33051 -2.3519 5.51579 14.8099 -17.13877 -5.3653 -7.25131 17.28068 9.68768
-0.73219 -0.12052 -0.8735 1296.21854 -36.42377 0.51741 36.47621 0.88466 -19.87979 -13.76423 2.42774 -0.83079 -36.67066 -1.32505 -25.07821 28.98272 86.14447 -0.58384 5.85152 -11.17658 10.11357 10.75556 36.39774 -86.43057 1.18433 -0.78712 51.77496 8.32927 -18.40934 -21.77195 -6.25232 -3.2997 -2.34304 3.94516 15.56709 -23.59506 -3.52684 -7.68884 23.78793 13.17793
-0.74414 -0.12384 -0.87035 1297.47284 -36.6299 0.78381 36.73555 0.88428 -19.95449 -13.62204 2.55621 -0.83079 -36.86104 -1.42929 -25.9203 27.98448 93.25483 1.3258 5.92433 -11.60019 9.94484 10.45762 36.27062 -86.45231 1.38013 -0.68585 50.52296 8.89429 -18.15261 -20.73479 -6.60687 -3.44125 -2.4269 2.22823 16.28221 -32.26241 -1.43617 -7.87295 33.01255 18.08841
-0.75702 -0.12666 -0.86694 1298.67063 -36.83108 0.97963 37.12956 0.87901 -20.04221 -13.5492 2.68555 -0.83079 -37.00429 -1.59197 -26.37873 27.20999 98.19639 2.68088 5.73412 -12.39441 9.63651 10.55668 36.39397 -87.80589 1.95062 -0.80922 49.01241 9.51728 -18.6318 -19.45358 -6.41901 -3.22355 -2.31996 0.8166 17.10908 -36.74715 0.12676 -8.59482 37.04762 20.29204
-0.77244 -0.12807 -0.86279 1299.74013 -37.04487 0.99404 37.90839 0.84353 -20.19579 -13.67535 2.80731 -0.83079 -37.10812 -1.89878 -25.73645 27.05282 96.51297 2.36149 4.79458 -14.13882 8.86451 11.95701 37.19159 -93.33485 3.69995 -1.62866 46.89118 10.30077 -21.21615 -17.22651 -4.69206 -2.09451 -1.72123 0.1927 18.25352 -28.47646 0.34607 -10.93859 25.30668 14.26817
-0.78875 -0.12899 -0.85838 1300.7444 -37.25032 0.93705 38.81361 0.80425 -20.35555 -13.87015 2.92889 -0.83079 -37.15896 -2.2571 -24.72216 27.1242 92.61118 1.47187 3.61272 -16.24367 7.96904 13.72104 38.23389 -100.10809 5.79815 -2.65947 44.5433 11.13244 -24.52168 -14.77945 -2.42362 -0.58801 -0.92254 -0.10717 19.4987 -16.10103 0.0041 -13.78947 8.48405 5.5913
